<?xml version="1.0" standalone="no"?>
<!DOCTYPE svg PUBLIC "-//W3C//DTD SVG 20010904//EN"
 "http://www.w3.org/TR/2001/REC-SVG-20010904/DTD/svg10.dtd">
<svg version="1.0" xmlns="http://www.w3.org/2000/svg"
 width="700.000000pt" height="700.000000pt" viewBox="0 0 700.000000 700.000000"
 preserveAspectRatio="xMidYMid meet">
<metadata>
Created by potrace 1.11, written by Peter Selinger 2001-2013
</metadata>
<g transform="translate(0.000000,700.000000) scale(0.100000,-0.100000)"
fill="#000000" stroke="none">
<path d="M3317 6978 c-27 -16 -41 -33 -49 -60 l-11 -38 -166 -1 c-203 -1 -254
-4 -356 -25 -471 -93 -846 -463 -945 -934 -30 -143 -31 -259 -5 -650 2 -30 7
-109 10 -175 4 -66 9 -123 11 -126 2 -4 -16 -27 -40 -52 -28 -29 -45 -57 -48
-78 -5 -35 62 -465 83 -532 17 -53 68 -108 130 -141 30 -16 56 -30 57 -32 2
-1 6 -22 8 -46 12 -135 41 -194 120 -249 19 -12 23 -28 29 -104 9 -118 29
-204 70 -292 67 -144 112 -194 369 -402 97 -79 181 -151 185 -160 16 -30 5
-282 -13 -339 -18 -52 -69 -129 -110 -164 -32 -28 -109 -66 -126 -62 -14 3
-52 13 -210 58 -66 19 -125 20 -171 5 -19 -7 -97 -53 -174 -103 -172 -113
-161 -106 -182 -111 -96 -20 -1232 -309 -1263 -321 -54 -22 -126 -104 -144
-163 -38 -128 10 -238 139 -322 44 -29 82 -54 84 -56 3 -2 5 -254 6 -561 1
-556 1 -557 23 -603 28 -57 56 -84 119 -115 l48 -23 2705 0 2705 0 48 23 c63
31 88 55 118 114 l24 47 1 550 c1 303 3 555 3 560 1 6 27 26 59 45 79 47 120
87 148 143 65 127 13 291 -111 352 -40 19 -175 59 -275 80 -8 2 -242 60 -520
130 l-505 126 -150 98 c-82 54 -165 103 -184 109 -55 19 -109 14 -241 -24
-162 -46 -149 -45 -195 -20 -58 30 -86 54 -127 108 -57 75 -71 131 -73 295
l-1 143 30 28 c17 16 67 57 111 92 44 36 82 67 85 70 3 3 36 30 75 60 191 150
278 288 320 510 3 14 8 61 11 105 4 67 9 82 27 95 76 52 109 118 121 240 3 30
9 56 14 58 37 12 122 74 148 109 30 40 40 73 67 243 16 95 20 117 23 135 42
220 39 247 -30 300 -20 15 -34 30 -32 34 3 4 8 63 11 131 4 69 9 143 10 165
27 377 24 559 -10 690 -34 131 -48 169 -99 267 -172 340 -472 568 -842 643
-96 19 -144 22 -361 24 l-161 1 -7 29 c-8 39 -48 77 -86 85 -18 3 -91 6 -163
6 -116 0 -135 -3 -169 -22z"/>
</g>
</svg>
